# xmcd
#
# Track frame offsets:
#	151
#	14540
#	25340
#	37729
#	49265
#	60968
#	79643
#	92765
#	109040
#	125165
#	140163
#	153379
#	163279
#	174515
#
# Disc length: 2524 seconds
#
# Revision: 1
# Processed by: cddbd v1.5.1PL0 Copyright (c) Steve Scherf et al.
# Submitted via: audiograbber 1.82.02
#
DISCID=b609da0e
DTITLE=Rob Breese - Second Thoughts
DYEAR=1900
DGENRE=Country
TTITLE0=Please Don't Let The Jukebox Go
TTITLE1=Ain't It Great
TTITLE2=The Love In Sarah's Eyes
TTITLE3=Laural and Hardy
TTITLE4=How Can I Write On Paper
TTITLE5=Sing Me Back Home
TTITLE6=Streets Of Baltimore
TTITLE7=The River
TTITLE8=Down To Nothing
TTITLE9=On Second Thoughts
TTITLE10=Tender Trap
TTITLE11=Room To Move
TTITLE12=Waltz Across Texas
TTITLE13=Working For The Japanese
EXTD=
EXTT0=
EXTT1=
EXTT2=
EXTT3=
EXTT4=
EXTT5=
EXTT6=
EXTT7=
EXTT8=
EXTT9=
EXTT10=
EXTT11=
EXTT12=
EXTT13=
PLAYORDER=
